<?xml version="1.0" encoding="utf-8"?>
<!-- Generator: Adobe Illustrator 16.0.5, SVG Export Plug-In . SVG Version: 6.00 Build 0)  -->
<!DOCTYPE svg PUBLIC "-//W3C//DTD SVG 1.1//EN" "http://www.w3.org/Graphics/SVG/1.1/DTD/svg11.dtd">
<svg version="1.1" id="Layer_1"
	 xmlns="http://www.w3.org/2000/svg" xmlns:xlink="http://www.w3.org/1999/xlink" x="0px" y="0px" width="432.373px"
	 height="59.253px" viewBox="0 0 432.373 59.253" enable-background="new 0 0 432.373 59.253" xml:space="preserve">
		<g>
			<path fill="#E31932" d="M384.535,53.673c0-1.121,0.947-2.045,2.125-2.045c1.168,0,2.111,0.924,2.111,2.045
				c0,1.158-0.943,2.078-2.111,2.078C385.482,55.751,384.535,54.832,384.535,53.673 M384.938,53.673
				c0,0.943,0.766,1.674,1.723,1.674c0.947,0,1.701-0.729,1.701-1.674c0-0.902-0.754-1.641-1.701-1.641
				C385.703,52.033,384.938,52.771,384.938,53.673"/>
			<path fill="#E31932" d="M387.708,54.845h-0.396l-0.683-1.068h-0.412v1.068h-0.342v-2.311h1.021c0.209,0,0.397,0.014,0.579,0.114
				c0.175,0.095,0.263,0.3,0.263,0.491c0,0.455-0.326,0.621-0.752,0.636L387.708,54.845z M386.601,53.496
				c0.343,0,0.8,0.061,0.8-0.361c0-0.301-0.269-0.332-0.576-0.332h-0.605v0.693H386.601z"/>
			<path fill="#0052C2" d="M118.538,29.843c7.452,0,11.141,5.472,11.141,12.864c0,7.688-3.542,13.061-11.141,13.061
				c-7.584,0-11.139-5.373-11.139-13.061C107.399,35.315,111.103,29.843,118.538,29.843 M118.538,50.748
				c1.978,0,2.863-1.775,2.863-8.041c0-5.711-0.591-7.838-2.863-7.838c-2.258,0-2.85,2.127-2.85,7.838
				C115.688,48.97,116.574,50.748,118.538,50.748"/>
			<path fill="#0052C2" d="M134.828,36.113h-3.246v-5.615h3.246v-2.758c0-6.061,2.998-8.284,8.277-8.284
				c1.58,0,2.761,0.154,4.042,0.303v6.108c-0.441-0.097-1.033-0.201-1.475-0.201c-2.109,0-2.861,0.828-2.861,2.321v2.512h4.336
				v5.615h-4.336v19.12h-7.983V36.113z"/>
			<path fill="#0052C2" d="M41.721,37.393c0-1.479-0.69-2.456-2.077-2.456c-1.917,0-2.523,1.807-2.611,3.248l-6.951-1.43
				c0.885-4.875,5.327-6.846,9.857-6.846c4.78,0,9.767,2.071,9.767,7.532v13.801c0,2.819,0.442,3.653,0.736,3.998h-8.23
				c-0.149-0.686-0.207-1.854-0.252-2.271c-1.359,1.445-3.718,2.744-6.078,2.744c-3.972,0-7.008-2.691-6.89-7.244
				c0.176-6.436,7.451-8.344,12.729-8.948V37.393z M41.721,43.363c-2.8,0.258-4.883,1.328-4.883,4.48
				c0,1.732,0.885,2.625,2.318,2.625c0.901,0,1.875-0.637,2.564-1.535L41.721,43.363L41.721,43.363z"/>
			<path fill="#0052C2" d="M62.352,37.546V55.24h-7.983V30.498h7.805l0.045,2.531h0.102c1.653-1.681,3.853-3.119,6.965-3.119
				c3.484,0,5.488,2.357,5.488,5.767v19.564h-7.982V38.207c0-1.408-0.501-2.189-1.843-2.189
				C64.048,36.016,63.077,36.604,62.352,37.546"/>
			<polygon fill="#0052C2" points="79.733,20.147 87.715,20.147 87.715,37.962 87.818,37.962 93.69,30.498 101.629,30.498 
				94.96,38.106 101.672,55.233 93.393,55.233 89.5,44.434 89.397,44.434 87.715,46.375 87.715,55.233 79.733,55.233 			"/>
			<path fill="#0052C2" d="M20.479,36.981c3.806,1.257,6.563,4.375,6.563,8.858c0,6.009-4.826,9.394-11.494,9.394H2.032V20.147
				h13.869c6.228,0,10.3,3.726,10.3,8.572c0,4.594-3.185,7-5.723,7.99L20.479,36.981L20.479,36.981z M10.65,48.738h3.247
				c1.931,0,4.484-0.846,4.484-4.439c0-2.617-1.612-4.344-4.484-4.344H10.65V48.738z M10.65,34.048h2.906
				c3.213,0,4.485-1.727,4.485-3.801c0-3.349-2.271-3.89-4.282-3.89h-3.11L10.65,34.048L10.65,34.048z"/>
			<path fill="#0052C2" d="M308.98,37.393c0-1.479-0.679-2.456-2.066-2.456c-1.918,0-2.522,1.807-2.611,3.248l-6.948-1.43
				c0.885-4.875,5.326-6.846,9.854-6.846c4.781,0,9.756,2.071,9.756,7.532v13.801c0,2.819,0.451,3.653,0.752,3.998h-8.233
				c-0.146-0.686-0.205-1.854-0.25-2.271c-1.371,1.445-3.719,2.744-6.078,2.744c-3.984,0-7.012-2.691-6.893-7.244
				c0.18-6.436,7.45-8.344,12.719-8.948L308.98,37.393L308.98,37.393z M308.98,43.363c-2.787,0.258-4.884,1.328-4.884,4.48
				c0,1.732,0.898,2.625,2.33,2.625c0.9,0,1.875-0.637,2.554-1.535V43.363z"/>
			<path fill="#0052C2" d="M226.899,44.587c-0.104,2.193,0.47,5.863,3.703,5.863c1.914,0,3.543-1.408,3.938-3.4l5.371,1.973
				c-0.338,1.135-2.804,6.743-9.899,6.743c-7.644,0-11.085-6.155-11.085-13.013c0-6.985,3.634-12.912,10.98-12.912
				c7.7,0,10.354,6.602,10.354,13.064v1.682H226.899z M232.871,39.843c0.076-2.287-0.248-4.971-3.008-4.971
				c-2.273,0-3.082,2.642-2.964,4.971H232.871z"/>
			<rect x="261.791" y="30.498" fill="#0052C2" width="7.983" height="24.744"/>
			<rect x="261.791" y="20.147" fill="#0052C2" width="7.983" height="7.1"/>
			<path fill="#0052C2" d="M287.496,39.652c0-0.986-0.058-2.173-0.396-3.104c-0.397-0.989-1.037-1.676-2.307-1.676
				c-2.668,0-2.963,3.254-2.963,8.183c0,5.565,0.885,7.394,2.963,7.394c2.807,0,3.055-2.857,3.055-4.738l6.197,0.894
				c-0.588,6.015-4.029,9.163-9.857,9.163c-7.184,0-10.932-6.301-10.932-12.417c0-6.755,3.748-13.506,11.273-13.506
				c8.484,0,9.768,7.339,9.768,9.809L287.496,39.652L287.496,39.652z"/>
			<path fill="#0052C2" d="M161.033,20.156h11.627l7.494,35.085h-8.616l-1.387-7.09h-8.13l-1.534,7.09H152.8L161.033,20.156z
				 M163.247,41.934h5.677l-2.521-14.293h-0.19L163.247,41.934z"/>
			<path fill="#0052C2" d="M243.544,30.498h7.729l0.091,3.354h0.114c1.644-2.606,4.617-3.941,7.688-3.941v8.083
				c-0.896-0.354-1.871-0.691-3.244-0.691c-2.039,0-3.438,0.802-4.381,1.923v16.019h-7.996L243.544,30.498L243.544,30.498z"/>
			<path fill="#0052C2" d="M203.027,37.585v17.646h-7.836V38.281c0-1.33-0.398-2.215-1.875-2.215c-0.84,0-2.034,0.607-2.715,1.521
				v17.646h-7.833V30.498h7.792l0.042,2.523h0.09c1.68-1.576,4.188-3.111,7.155-3.111c2.435,0,4.053,1.403,4.811,3.31h0.101
				c1.39-1.512,3.779-3.31,7.117-3.31c3.32,0,5.575,2.188,5.575,5.609v19.714h-7.836V38.281c0-1.33-0.396-2.215-1.861-2.215
				C204.694,36.066,203.542,36.906,203.027,37.585"/>
			<path fill="#0052C2" d="M366.628,15.645c3.146,1.235,6.229,2.562,9.297,3.984c-9.754,3.947-19.151,8.636-28.141,13.998
				c-3.037-1.592-6.121-3.104-9.236-4.509C347.507,23.895,356.888,19.381,366.628,15.645"/>
			<path fill="#0052C2" d="M355.015,11.547c-10.104,3.204-19.844,7.386-29.067,12.479c2.938,1.058,5.856,2.193,8.731,3.404
				c8.945-5.26,18.39-9.686,28.218-13.2C360.3,13.269,357.671,12.373,355.015,11.547"/>
			<path fill="#E31932" d="M387.744,15.244c-7.953-3.838-16.201-7.081-24.685-9.658c-2.979,0.855-5.948,1.794-8.885,2.814
				c8.75,2.585,17.25,5.861,25.424,9.78C382.283,17.149,385.013,16.164,387.744,15.244"/>
			<path fill="#E31932" d="M400.714,11.377c-8.145-3.549-16.543-6.516-25.145-8.875c-2.73,0.569-5.461,1.195-8.146,1.897
				c8.527,2.488,16.824,5.642,24.82,9.399C395.048,12.934,397.867,12.128,400.714,11.377"/>
			<path fill="#E31932" d="M421.531,18.379c-20.404,6.871-39.515,16.671-56.803,28.931c4.321,2.652,8.538,5.471,12.641,8.441
				c16.307-12.928,34.396-23.703,53.873-31.884C428.054,21.943,424.824,20.112,421.531,18.379"/>
			<path fill="#E31932" d="M407.501,11.702c-21.203,5.61-41.152,14.668-59.127,26.583c4.043,1.992,8.029,4.129,11.926,6.381
				c17.615-12.18,37.164-21.681,58.015-27.945C414.761,14.936,411.16,13.266,407.501,11.702"/>
		</g>

</svg>
